<?xml version="1.0" standalone="no"?><!DOCTYPE svg PUBLIC "-//W3C//DTD SVG 1.1//EN" "http://www.w3.org/Graphics/SVG/1.1/DTD/svg11.dtd"><svg t="1501840122105" class="icon" style="" viewBox="0 0 1024 1024" version="1.1" xmlns="http://www.w3.org/2000/svg" p-id="4366" xmlns:xlink="http://www.w3.org/1999/xlink" width="18" height="18"><defs><style type="text/css"></style></defs><path d="M1024 856.547556c0 103.822222-257.592889 158.179556-512 158.179555s-512-54.328889-512-158.179555c0-92.103111 198.4-130.503111 283.704889-142.734223a23.239111 23.239111 0 0 1 6.570667 45.937778c-177.664 25.457778-243.882667 72.903111-243.882667 96.768 0 45.624889 181.361778 111.786667 465.578667 111.786667 284.245333 0 465.607111-66.161778 465.607111-111.786667 0-24.064-66.844444-71.765333-246.243556-97.166222a23.153778 23.153778 0 0 1-19.712-26.225778 23.324444 23.324444 0 0 1 26.225778-19.712c86.044444 12.202667 286.151111 50.517333 286.151111 143.132445z m-610.161778-551.168a98.275556 98.275556 0 0 1 98.161778-98.161778 98.275556 98.275556 0 0 1 98.190222 98.161778 98.304 98.304 0 0 1-98.190222 98.190222 98.247111 98.247111 0 0 1-98.161778-98.190222z m242.744889 0a144.725333 144.725333 0 0 0-144.583111-144.583112c-79.729778 0-144.583111 64.853333-144.583111 144.583112s64.853333 144.583111 144.583111 144.583111a144.725333 144.725333 0 0 0 144.583111-144.583111z m-144.583111-249.230223c142.791111 0 258.958222 116.138667 258.958222 258.929778 0 197.831111-200.561778 420.124444-259.128889 480.768-58.737778-59.619556-258.730667-277.418667-258.730666-480.768 0-142.791111 116.138667-258.929778 258.901333-258.929778z m-15.843556 789.418667l16.042667 14.990222 15.843556-15.217778c11.832889-11.264 289.308444-279.950222 289.308444-530.289777 0-168.362667-136.96-305.322667-305.351111-305.322667-168.334222 0-305.322667 136.96-305.322667 305.322667 0 257.109333 277.674667 519.452444 289.479111 530.517333z" p-id="4367" fill="#fbab67"></path></svg>