<?xml version="1.0" standalone="no"?><!DOCTYPE svg PUBLIC "-//W3C//DTD SVG 1.1//EN" "http://www.w3.org/Graphics/SVG/1.1/DTD/svg11.dtd"><svg t="1501905876731" class="icon" style="" viewBox="0 0 1024 1024" version="1.1" xmlns="http://www.w3.org/2000/svg" p-id="2369" xmlns:xlink="http://www.w3.org/1999/xlink" width="18" height="18"><defs><style type="text/css"></style></defs><path d="M361.414865 962.092022c-32.499182 0-58.957787-26.646893-58.957787-59.292408 0-32.739659 26.458605-59.204403 58.957787-59.204404 32.506345 0 58.917878 26.464745 58.917877 59.204404 0 32.645514-26.411533 59.292408-58.917877 59.292408z m343.084892 0c-32.408107 0-58.821687-26.646893-58.821687-59.292408 0-32.739659 26.414603-59.204403 58.821687-59.204404 32.508391 0 58.96495 26.464745 58.96495 59.204404 0 32.645514-26.456558 59.292408-58.96495 59.292408z m120.123868-306.550815H312.267515l18.803251 90.474594h450.64256c0.533143 0 1.066285 0.01228 1.596358 0.038886l-14.922874 60.319807c-0.523933 0.024559-1.052982 0.036839-1.592265 0.036839H281.736151L162.941558 256.146844s-64.076364-0.213871-65.993017-0.593517l-16.065907-59.237149c1.910513-0.381693 130.845047-0.575098 130.845047-0.575098l31.313169 150.875242h667.666363l-86.083588 308.924885zM299.62866 595.147722h477.232148l56.413848-188.131775h-577.717748l44.071752 188.131775z m382.409526-305.656445h66.61314l-10.843975 23.986297H624.461863l73.712839-95.944166h-68.774363l21.681811-23.980157h104.677061l-73.721025 95.938026z m172.736133-111.505583h78.853929l-12.831236 28.392653H786.614963l87.267553-113.577778h-81.421405l25.663497-28.38856h123.91931l-87.269599 113.573685z" p-id="2370" fill="#707070"></path></svg>