<?xml version="1.0" standalone="no"?><!DOCTYPE svg PUBLIC "-//W3C//DTD SVG 1.1//EN" "http://www.w3.org/Graphics/SVG/1.1/DTD/svg11.dtd"><svg t="1501573301621" class="icon" style="" viewBox="0 0 1024 1024" version="1.1" xmlns="http://www.w3.org/2000/svg" p-id="2395" xmlns:xlink="http://www.w3.org/1999/xlink" width="18" height="18"><defs><style type="text/css"></style></defs><path d="M874.843 311.229c-0.988-23.706-20.743-43.461-44.449-43.461h-112.604c-8.889-108.653-98.775-195.575-207.429-195.575s-198.539 85.935-207.429 195.575h-119.518c-22.718 0-40.498 17.78-40.498 43.461l-43.461 582.775v1.975c0 24.694 19.755 44.449 44.449 44.449h735.877c24.694 0 44.449-19.755 44.449-44.449l-49.388-584.751zM510.361 122.568c81.983 0 149.151 64.204 158.041 146.188h-316.082c8.889-82.971 76.057-146.188 158.041-146.188zM148.843 891.041l42.474-573.886h109.641v80.008c-13.829 7.902-23.706 23.706-23.706 42.474 0 27.657 21.731 49.388 49.388 49.388s49.388-21.731 49.388-49.388c0-17.78-9.877-33.583-24.694-42.474v-80.008h318.057v79.020c-14.817 8.889-24.694 24.694-24.694 42.474 0 27.657 21.731 49.388 49.388 49.388s49.388-21.731 49.388-49.388c0-17.78-9.877-33.583-24.694-42.474v-79.020h106.677l48.4 573.886h-725.012z" p-id="2396" fill="#515151"></path></svg>