<?xml version="1.0" standalone="no"?><!DOCTYPE svg PUBLIC "-//W3C//DTD SVG 1.1//EN" "http://www.w3.org/Graphics/SVG/1.1/DTD/svg11.dtd"><svg t="1501915560167" class="icon" style="" viewBox="0 0 1024 1024" version="1.1" xmlns="http://www.w3.org/2000/svg" p-id="10892" xmlns:xlink="http://www.w3.org/1999/xlink" width="18" height="18"><defs><style type="text/css"></style></defs><path d="M241.333976 0c66.656119 0 126.984113 26.954909 170.649612 70.546729 0.49221 0.560772 0.984421 1.052982 1.476631 1.614777 42.750663 43.450604 69.188802 103.046934 69.188802 168.751379l0 214.378555c0 14.671141-11.884678 26.53433-26.580379 26.53433L241.333976 481.82577c-66.586534 0-126.844943-26.954909-170.508395-70.546729l-0.069585-0.070608-0.070608 0.070608c-43.663452-43.592844-70.66441-103.820554-70.66441-170.366156 0-66.476017 27.000957-126.774335 70.66441-170.365132C114.348839 26.954909 174.747441 0 241.333976 0L241.333976 0zM374.365828 108.102067c-34.033118-33.975812-81.071434-54.963823-133.031852-54.963823-51.961442 0-98.999758 20.989033-133.030829 54.963823-34.032094 33.973766-55.054897 80.935334-55.054897 132.810818 0 51.875484 21.022803 98.835006 55.054897 132.810818l0 0.069585c34.031071 33.905204 81.07041 54.893214 133.030829 54.893214l188.086749 0L429.420725 240.912885c0-51.244104-20.461007-97.642854-53.717436-131.548058L374.365828 108.102067zM708.350458 592.453357c-14.6957 0-26.646893-11.93175-26.646893-26.603915 0-14.600533 11.951193-26.535353 26.646893-26.535353l73.196069 0c66.657142 0 126.984113 26.954909 170.649612 70.547753 0.49221 0.561795 0.984421 1.050935 1.476631 1.613754 42.74964 43.451628 69.185732 103.048981 69.185732 168.751379 0 66.477041-27.000957 126.633119-70.663386 170.224939l-0.14224 0.14224c-43.662429 43.590797-103.920838 70.544683-170.507372 70.544683-66.585511 0-126.84392-26.954909-170.509419-70.544683l-0.069585-0.069585-0.068562 0.069585c-43.665499-43.591821-70.66441-103.820554-70.66441-170.366156L540.23353 565.849442c0-14.600533 11.952216-26.535353 26.578332-26.535353 14.693654 0 26.647917 11.93482 26.647917 26.535353l0 214.378555c0 51.873438 21.022803 98.836029 55.054897 132.810818l0 0.069585c34.031071 33.905204 81.072457 54.894238 133.031852 54.894238 51.960419 0 99.070366-20.989033 133.101437-54.894238 33.961486-33.974789 54.985312-81.006965 54.985312-132.880403 0-51.242058-20.461007-97.641831-53.720505-131.548058l-1.335415-1.261737c-34.033118-33.975812-81.071434-54.964846-133.031852-54.964846L708.350458 592.453357zM241.333976 968.002638c51.960419 0 99.070366-20.989033 133.101437-54.894238 33.963533-33.974789 54.985312-81.006965 54.985312-132.880403L429.420725 592.453357 241.333976 592.453357c-51.961442 0-98.999758 20.989033-133.030829 54.964846-34.032094 33.974789-55.054897 80.934311-55.054897 132.809795 0 51.873438 21.022803 98.836029 55.054897 132.810818l1.264806 1.333368C143.528416 947.576423 190.004937 968.002638 241.333976 968.002638L241.333976 968.002638zM411.841348 950.595176c-43.662429 43.590797-103.920838 70.544683-170.507372 70.544683-65.811892 0-125.508505-26.393113-169.031764-69.071122-0.561795-0.49221-1.054005-0.982374-1.616824-1.473561-43.663452-43.591821-70.66441-103.820554-70.66441-170.366156 0-66.476017 27.000957-126.775358 70.66441-170.365132 43.663452-43.593867 104.062054-70.547753 170.648588-70.547753l214.734666 0c14.6957 0 26.580379 11.93482 26.580379 26.535353l0 214.378555c0 66.477041-26.999934 126.633119-70.665433 170.224939L411.841348 950.595176zM781.546527 53.137221c-51.959396 0-99.000781 20.989033-133.031852 54.963823-34.032094 33.973766-55.054897 80.935334-55.054897 132.810818L593.459778 428.686503l188.086749 0c51.960419 0 99.070366-20.98801 133.101437-54.893214 33.961486-33.973766 54.985312-81.004919 54.985312-132.880403 0-51.874461-21.024849-98.836029-54.985312-132.810818l-0.069585 0C880.545262 74.126254 833.506946 53.137221 781.546527 53.137221L781.546527 53.137221zM610.897939 70.546729c43.662429-43.591821 104.062054-70.546729 170.648588-70.546729 66.657142 0 126.984113 26.954909 170.649612 70.546729l-0.069585 0.069585 0.069585 0.070608c43.662429 43.590797 70.663386 103.748922 70.663386 170.224939 0 66.474994-27.000957 126.633119-70.663386 170.224939l-0.14224 0.141216c-43.662429 43.591821-103.920838 70.546729-170.507372 70.546729L566.811862 481.824747c-14.626115 0-26.578332-11.863189-26.578332-26.53433L540.23353 240.912885C540.234553 174.436868 567.23244 114.137527 610.897939 70.546729L610.897939 70.546729z" fill="#e19b4a" p-id="10893"></path></svg>