<?xml version="1.0" standalone="no"?><!DOCTYPE svg PUBLIC "-//W3C//DTD SVG 1.1//EN" "http://www.w3.org/Graphics/SVG/1.1/DTD/svg11.dtd"><svg t="1501914933294" class="icon" style="" viewBox="0 0 1024 1024" version="1.1" xmlns="http://www.w3.org/2000/svg" p-id="9116" xmlns:xlink="http://www.w3.org/1999/xlink" width="18" height="18"><defs><style type="text/css"></style></defs><path d="M807.661972 771.605634l-219.943662-212.732395c-10.816901-10.816901-28.84507-10.816901-39.661972 0-10.816901 10.816901-10.816901 28.84507 0 39.661972l219.943662 212.732395c3.605634 3.605634 10.816901 7.211268 18.028169 7.211267s14.422535-3.605634 18.028169-7.211267c14.422535-10.816901 14.422535-28.84507 3.605634-39.661972z m-173.070423-288.450704c10.816901 0 18.028169-7.211268 21.633803-18.028169 3.605634-7.211268 0-18.028169-7.211267-25.239437l-90.140846-86.535211 18.028169-118.985916c0-10.816901-3.605634-18.028169-10.816901-25.239436-7.211268-7.211268-18.028169-7.211268-25.239437-3.605634l-111.774647 57.690141-111.774648-54.084507c-7.211268-7.211268-18.028169-3.605634-25.239437 0-7.211268 7.211268-10.816901 14.422535-10.816901 25.239436l21.633802 122.591549-90.140845 86.535212c-7.211268 7.211268-10.816901 18.028169-7.211267 25.239436 3.605634 7.211268 10.816901 14.422535 21.633803 18.028169l126.197183 18.028169 57.690141 111.774648c3.605634 7.211268 14.422535 14.422535 21.633802 14.422535 10.816901 0 18.028169-3.605634 21.633803-14.422535l57.690141-111.774648 122.591549-21.633802zM468.732394 468.732394l-39.661971 79.323944-39.661972-79.323944c-3.605634-7.211268-10.816901-10.816901-18.028169-14.422535l-86.535212-10.816901 64.901409-61.295775c7.211268-7.211268 7.211268-14.422535 7.211267-21.633803l-18.028169-86.535211 79.323944 39.661972c7.211268 3.605634 14.422535 3.605634 21.633803 0l79.323944-39.661972L504.788732 360.56338c0 7.211268 0 14.422535 7.211268 21.633803l64.901408 61.295775-86.535211 10.816901c-10.816901 0-18.028169 7.211268-21.633803 14.422535z m-140.619718 155.042254l-21.633803 64.901408-68.507042 21.633803 68.507042 21.633803 21.633803 64.901408 21.633803-64.901408 68.507042-21.633803-68.507042-21.633803-21.633803-64.901408z m176.676056-14.422535l-10.816901 32.450704-32.450704 10.816901 32.450704 10.816902 10.816901 32.450704 10.816902-32.450704 32.450704-10.816902-32.450704-10.816901-10.816902-32.450704z" fill="#1296db" p-id="9117"></path></svg>