<?xml version="1.0" standalone="no"?><!DOCTYPE svg PUBLIC "-//W3C//DTD SVG 1.1//EN" "http://www.w3.org/Graphics/SVG/1.1/DTD/svg11.dtd"><svg t="1501573000625" class="icon" style="" viewBox="0 0 1024 1024" version="1.1" xmlns="http://www.w3.org/2000/svg" p-id="783" xmlns:xlink="http://www.w3.org/1999/xlink" width="18" height="18"><defs><style type="text/css"></style></defs><path d="M136 506.282667c-11.541333 0-20.885333 9.237333-20.885333 20.693333l0 392.981333 793.770667 0L908.885333 526.954667c0-11.434667-9.344-20.693333-20.885333-20.693333-11.541333 0-20.885333 9.237333-20.885333 20.693333l0 351.616L637.333333 878.570667l0-163.754667c0-57.024-46.848-103.424-104.448-103.424l-41.770667 0c-57.6 0-104.448 46.4-104.448 103.424l0 163.754667L156.885333 878.570667 156.885333 526.954667C156.885333 515.52 147.541333 506.282667 136 506.282667zM428.437333 714.816c0-34.218667 28.117333-62.058667 62.656-62.058667l41.770667 0c34.56 0 62.677333 27.84 62.677333 62.058667l0 163.754667-167.104 0L428.437333 714.816zM992.448 961.301333 31.552 961.301333C20.010667 961.301333 10.666667 970.538667 10.666667 981.973333 10.666667 993.408 20.010667 1002.666667 31.552 1002.666667l960.896 0C1003.989333 1002.666667 1013.333333 993.408 1013.333333 981.973333 1013.333333 970.538667 1003.989333 961.301333 992.448 961.301333zM151.658667 464.917333c58.901333 0 98.56-45.333333 120.106667-79.637333 21.568 34.304 61.226667 79.637333 120.106667 79.637333 58.56 0 98.368-45.482667 120.021333-79.786667 21.546667 34.325333 61.226667 79.786667 120.192 79.786667 58.837333 0 98.453333-45.226667 120.021333-79.509333 21.461333 34.304 60.992 79.509333 120.192 79.509333 92.010667 0 140.992-72.362667 140.992-124.565333 0-62.634667-111.168-292.714667-123.84-318.741333-3.477333-7.146667-10.794667-11.690667-18.816-11.690667L151.658667 9.92c-8.064 0-15.402667 4.586667-18.858667 11.797333C120.298667 47.722667 10.666667 277.738667 10.666667 340.330667 10.666667 392.554667 59.669333 464.917333 151.658667 464.917333zM164.885333 51.242667l692.629333 0c46.357333 96.341333 114.048 250.602667 114.048 289.088 0 28.096-29.973333 83.221333-99.221333 83.221333-64.554667 0-100.245333-89.728-100.608-90.624-3.114667-7.978667-10.858667-13.248-19.477333-13.248l0 0c-8.618667 0-16.362667 5.226667-19.498667 13.184-0.341333 0.917333-37.248 90.688-100.629333 90.688-64.042667 0-100.288-89.813333-100.650667-90.730667-3.136-7.914667-10.837333-13.141333-19.434667-13.141333l0 0c-8.597333 0-16.32 5.162667-19.456 13.098667-0.362667 0.917333-37.824 90.794667-100.672 90.794667-64.021333 0-100.288-89.813333-100.650667-90.730667-3.136-7.914667-10.858667-13.141333-19.456-13.141333l-0.042667 0c-8.597333 0.021333-16.341333 5.226667-19.434667 13.184-0.341333 0.917333-37.269333 90.688-100.629333 90.688-69.269333 0-99.221333-55.104-99.221333-83.221333C52.437333 301.845333 119.168 147.626667 164.885333 51.242667z" p-id="784" fill="#515151"></path></svg>