<?xml version="1.0" standalone="no"?><!DOCTYPE svg PUBLIC "-//W3C//DTD SVG 1.1//EN" "http://www.w3.org/Graphics/SVG/1.1/DTD/svg11.dtd"><svg t="1501641229497" class="icon" style="" viewBox="0 0 1025 1024" version="1.1" xmlns="http://www.w3.org/2000/svg" p-id="2940" xmlns:xlink="http://www.w3.org/1999/xlink" width="18.017578125" height="18"><defs><style type="text/css"></style></defs><path d="M409.223 0 64.276 0C28.777 0 0 28.777 0 64.276l0 344.947c0 35.498 28.777 64.276 64.276 64.276l344.947 0c35.499 0 64.276-28.777 64.276-64.276L473.499 64.276C473.499 28.777 444.721 0 409.223 0zM430.499 409.223c0 11.731-9.544 21.276-21.276 21.276L64.276 430.499c-11.732 0-21.276-9.544-21.276-21.276L43 64.276C43 52.544 52.544 43 64.276 43l344.947 0c11.732 0 21.276 9.544 21.276 21.276L430.499 409.223z" p-id="2941" fill="#ff3366"></path><path d="M959.724 0 614.777 0c-35.499 0-64.276 28.777-64.276 64.276l0 344.947c0 35.498 28.777 64.276 64.276 64.276l344.947 0c35.499 0 64.276-28.777 64.276-64.276L1024 64.276C1024 28.777 995.223 0 959.724 0zM981 409.223c0 11.731-9.544 21.276-21.276 21.276L614.777 430.499c-11.731 0-21.276-9.544-21.276-21.276L593.501 64.276c0-11.732 9.544-21.276 21.276-21.276l344.947 0C971.456 43 981 52.544 981 64.276L981 409.223z" p-id="2942" fill="#ff3366"></path><path d="M409.223 548.502 64.276 548.502C28.777 548.502 0 577.279 0 612.777l0 344.947C0 993.223 28.777 1022 64.276 1022l344.947 0c35.499 0 64.276-28.777 64.276-64.276L473.499 612.777C473.499 577.279 444.721 548.502 409.223 548.502zM430.499 957.724c0 11.731-9.544 21.276-21.276 21.276L64.276 979C52.544 979 43 969.456 43 957.724L43 612.777c0-11.732 9.544-21.276 21.276-21.276l344.947 0c11.732 0 21.276 9.544 21.276 21.276L430.499 957.724z" p-id="2943" fill="#ff3366"></path><path d="M807.868 531.723c-10.276-10.276-23.745-15.415-37.214-15.415-13.469 0-26.938 5.138-37.214 15.415L533.723 731.44c-20.553 20.553-20.553 53.876 0 74.429l199.717 199.717c10.276 10.276 23.745 15.415 37.214 15.415 13.469 0 26.938-5.138 37.214-15.415l199.717-199.717c20.553-20.553 20.553-53.876 0-74.429L807.868 531.723zM977.18 775.463 777.462 975.18c-2.331 2.331-4.989 2.82-6.808 2.82-1.82 0-4.478-0.489-6.809-2.82L564.128 775.463c-2.331-2.331-2.82-4.989-2.82-6.809s0.489-4.478 2.82-6.809l199.717-199.717c2.331-2.331 4.989-2.82 6.809-2.82s4.477 0.489 6.808 2.82L977.18 761.845C980.934 765.6 980.934 771.709 977.18 775.463z" p-id="2944" fill="#ff3366"></path></svg>