<?xml version="1.0" standalone="no"?><!DOCTYPE svg PUBLIC "-//W3C//DTD SVG 1.1//EN" "http://www.w3.org/Graphics/SVG/1.1/DTD/svg11.dtd"><svg t="1501835305390" class="icon" style="" viewBox="0 0 1024 1024" version="1.1" xmlns="http://www.w3.org/2000/svg" p-id="7953" xmlns:xlink="http://www.w3.org/1999/xlink" width="18" height="18"><defs><style type="text/css"></style></defs><path d="M860.892 872.371H163.108c-46.183 0-83.748-37.57-83.748-83.748V260.44c0-46.182 37.57-83.748 83.748-83.748h697.779c46.182 0 83.748 37.57 83.748 83.748v528.18c0.005 46.182-37.566 83.752-83.743 83.752z m-697.784-644.48c-17.95 0-32.548 14.602-32.548 32.548v528.18c0 17.95 14.602 32.547 32.548 32.547h697.779c17.95 0 32.548-14.602 32.548-32.548V260.44c0-17.946-14.602-32.548-32.548-32.548h-697.78z" fill="#2a7cd5" p-id="7954"></path><path d="M365.133 563.738c-64.538 0-117.043-52.506-117.043-117.044 0-64.532 52.505-117.033 117.043-117.033 64.532 0 117.038 52.5 117.038 117.033 0.005 64.543-52.5 117.044-117.038 117.044z m0-182.877c-36.306 0-65.843 29.533-65.843 65.833 0 36.306 29.542 65.844 65.843 65.844S430.97 483 430.97 446.694c0.005-36.3-29.532-65.833-65.838-65.833z" fill="#2a7cd5" p-id="7955"></path><path d="M527.18 725.786c-14.14 0-25.6-11.459-25.6-25.6 0-75.234-61.209-136.443-136.442-136.443-75.238 0-136.453 61.21-136.453 136.443 0 14.141-11.459 25.6-25.6 25.6s-25.6-11.459-25.6-25.6c0-103.47 84.178-187.643 187.653-187.643 103.47 0 187.643 84.173 187.643 187.643 0 14.141-11.459 25.6-25.6 25.6zM826.977 401.69H637.153c-14.141 0-25.6-11.464-25.6-25.6s11.459-25.6 25.6-25.6h189.824c14.142 0 25.6 11.463 25.6 25.6s-11.463 25.6-25.6 25.6zM826.977 556.795H637.153c-14.141 0-25.6-11.459-25.6-25.6s11.459-25.6 25.6-25.6h189.824c14.142 0 25.6 11.458 25.6 25.6s-11.463 25.6-25.6 25.6zM826.977 700.319H637.153c-14.141 0-25.6-11.459-25.6-25.6s11.459-25.6 25.6-25.6h189.824c14.142 0 25.6 11.458 25.6 25.6s-11.463 25.6-25.6 25.6z" fill="#2a7cd5" p-id="7956"></path></svg>