<?xml version="1.0" standalone="no"?><!DOCTYPE svg PUBLIC "-//W3C//DTD SVG 1.1//EN" "http://www.w3.org/Graphics/SVG/1.1/DTD/svg11.dtd"><svg t="1501573449140" class="icon" style="" viewBox="0 0 1024 1024" version="1.1" xmlns="http://www.w3.org/2000/svg" p-id="6052" xmlns:xlink="http://www.w3.org/1999/xlink" width="18" height="18"><defs><style type="text/css"></style></defs><path d="M173.927813 954.620707h99.688772c-20.717872-73.727488 27.815661-166.893968 59.659798-217.15399a402.527788 402.527788 0 0 1-102.438366-76.477083C163.185213 590.779068 114.587736 496.141876 114.587736 391.97702c0-216.258774 185.949294-391.529412 406.428375-391.529412 220.543025 0 406.428375 175.270638 406.428375 391.529412 0 104.164856-48.597477 198.802048-116.250281 269.012614a400.737355 400.737355 0 0 1-102.374422 76.477083c31.844136 50.260022 80.37767 143.426502 59.723741 217.15399h99.560885c19.119271 0 34.785563 15.602348 34.785562 34.721618a34.785563 34.785563 0 0 1-34.785562 34.657675H173.927813a34.721619 34.721619 0 0 1-34.657674-34.657675c0-19.119271 15.602348-34.721619 34.657674-34.721618zM382.513301 304.501561a63.624329 63.624329 0 1 0 0 127.248658 63.624329 63.624329 0 0 0 0-127.248658z m277.069564 0a63.624329 63.624329 0 1 0 0 127.248658 63.624329 63.624329 0 0 0 0-127.248658zM343.187711 954.620707h355.6568c0.063944-6.202573 1.023105-12.405145 2.749594-18.799551 13.10853-46.487324-27.623829-123.667791-51.411015-161.202947a67.460972 67.460972 0 0 1-8.504559-55.11977c5.307356-19.502935 17.073061-34.146122 34.913451-43.545897 31.332584-16.433621 60.043462-37.726989 84.661921-63.176721 57.102036-59.212189 96.81129-137.223929 96.81129-220.798801 0-181.728987-159.092794-322.086175-337.049082-322.086174s-336.985138 140.357187-336.985138 322.086174c0 83.510928 39.64531 161.522668 96.81129 220.798801 24.618459 25.449731 53.265393 46.7431 84.597977 63.176721 17.776446 9.335831 29.606095 24.042962 34.785562 43.545897a67.141251 67.141251 0 0 1-8.37667 55.11977c-23.85113 37.599101-64.583489 114.779568-51.474959 161.202947 1.854377 6.394405 2.749594 12.596978 2.813538 18.799551z" fill="#515151" p-id="6053"></path></svg>