<?xml version="1.0" standalone="no"?><!DOCTYPE svg PUBLIC "-//W3C//DTD SVG 1.1//EN" "http://www.w3.org/Graphics/SVG/1.1/DTD/svg11.dtd"><svg t="1501840413669" class="icon" style="" viewBox="0 0 1024 1024" version="1.1" xmlns="http://www.w3.org/2000/svg" p-id="8334" xmlns:xlink="http://www.w3.org/1999/xlink" width="18" height="18"><defs><style type="text/css"></style></defs><path d="M509.766853 998.524368c-265.580273 0-484.291221-216.976489-484.291221-485.407795 0-268.436171 216.480234-487.642158 486.525584-487.642157 267.808555 0 486.523151 219.20477 486.523152 487.642157 0 268.431306-218.714597 485.407794-488.757515 485.407795z m2.234363-925.745188c-232.104964 0-439.350965 207.708199-439.350965 440.337393 0 230.394831 207.247218 438.105463 437.117818 438.105463 232.107396 0 446.524767-207.710632 446.524767-438.105463 0-230.396047-212.186656-440.337393-444.29162-440.337393zM790.973072 273.758748L625.819943 613.777249c-4.461428 6.726199-8.924073 13.424424-15.625946 15.655138L275.434824 790.510874c-4.465077 2.230714-8.928938 4.461428-13.3928 4.461429-8.927722 0-17.855444-2.230714-24.550019-8.95813-11.159653-8.928938-13.390367-24.584076-6.695792-38.007284L393.713763 405.760106c2.231931-6.726199 8.927722-13.421991 15.623514-15.686762L746.334462 231.254762c13.385502-6.693359 29.011448-4.461428 37.934305 6.731065 11.168167 11.191277 13.397665 26.845198 6.704305 35.772921zM512.001216 445.999321c-37.940387 0-66.954267 29.078345-66.954267 67.117252 0 38.04134 29.013881 67.120902 66.954267 67.120902 35.708456 0 66.950618-29.079561 66.950619-67.120902 0-38.038908-31.243379-67.117253-66.950619-67.117252z" p-id="8335" fill="#6732d9"></path></svg>