<?xml version="1.0" standalone="no"?><!DOCTYPE svg PUBLIC "-//W3C//DTD SVG 1.1//EN" "http://www.w3.org/Graphics/SVG/1.1/DTD/svg11.dtd"><svg t="1501835173744" class="icon" style="" viewBox="0 0 1024 1024" version="1.1" xmlns="http://www.w3.org/2000/svg" p-id="6508" xmlns:xlink="http://www.w3.org/1999/xlink" width="18" height="18"><defs><style type="text/css"></style></defs><path d="M838.832 22.544h-668.275c-93.628 0-93.628 93.229-93.628 93.229v792.451c0 0 0 93.229 95.057 93.229h553.057l204.515-163.152v-722.53c0 0-1.43-93.229-90.724-93.229v0zM883.469 814.997l-184.352 139.845h-506.969c-69.133 0-69.133-69.922-69.133-69.922v-745.836c0 0 0-69.922 69.133-69.922h622.189c69.133 0 69.133 69.922 69.133 69.922v675.915zM238.238 535.307h530.012v46.615h-530.012v-46.615zM238.238 348.848h530.012v46.615h-530.012v-46.615zM238.238 162.389h253.484v46.615h-253.484v-46.615zM837.381 698.458h-207.397v209.766h46.087v-163.152h161.309v-46.615z" p-id="6509" fill="#e5c141"></path></svg>