<?xml version="1.0" standalone="no"?><!DOCTYPE svg PUBLIC "-//W3C//DTD SVG 1.1//EN" "http://www.w3.org/Graphics/SVG/1.1/DTD/svg11.dtd"><svg t="1501840007278" class="icon" style="" viewBox="0 0 1024 1024" version="1.1" xmlns="http://www.w3.org/2000/svg" p-id="3540" xmlns:xlink="http://www.w3.org/1999/xlink" width="18" height="18"><defs><style type="text/css"></style></defs><path d="M64.816215 750.578724" p-id="3541" fill="#3ba912"></path><path d="M831.886541 412.231739c0-44.509726-36.089963-79.024821-80.579223-79.024821l-74.42506 0c-51.256384-153.49593-150.234653-262.10965-155.831115-265.85802-5.993504-3.984754-13.780865-3.196809-19.773346 0.787946-92.26538 61.519122-138.78488 177.066765-162.254408 265.071098l-68.001767 0c-44.48926 0-80.579223 34.515095-80.579223 79.024821l-35.638685 465.058898c0 44.509726 36.089963 83.20298 80.579223 83.20298l551.562041 0c44.490284 0 80.579223-38.693254 80.579223-83.20298L831.886541 412.231739zM510.816035 105.673761c24.414039 19.205411 89.870844 118.03837 129.322367 227.532133L375.789759 333.205894C397.208581 257.481236 436.97119 159.093415 510.816035 105.673761zM785.570679 926.723489 236.758262 926.723489c-25.574469 0-46.315862-25.072025-46.315862-50.646494l35.639708-456.134645c0-25.579585 20.74037-42.73429 46.314839-42.73429l58.656935 0c-9.515724 44.002167-13.329587 83.060741-14.84408 108.822474-11.375072 7.830339-18.860557 18.039865-18.860557 32.894178 0 23.985274 19.451004 41.992393 43.426045 41.992393 23.985274 0 43.436278-20.165272 43.436278-44.150546 0-19.935028-13.501502-31.162744-31.804357-36.270065 1.879813-26.063609 6.014994-59.286268 15.102976-103.288434L651.082662 377.208061c10.214642 33.769105 17.174148 70.600965 19.419282 110.520139-10.150174 7.949043-16.787338 17.297968-16.787338 31.197536 0 23.985274 19.451004 41.992393 43.426045 41.992393s43.436278-20.165272 43.436278-44.150546c0-21.004383-14.918781-33.139771-34.736129-37.167504-2.534729-37.528732-9.06547-68.62189-18.238386-102.390995l62.330604 0c25.574469 0 46.326095 14.989389 46.326095 40.568974l35.628452 461.179544C831.886541 904.531048 811.145148 926.723489 785.570679 926.723489z" p-id="3542" fill="#3ba912"></path></svg>