<?xml version="1.0" standalone="no"?><!DOCTYPE svg PUBLIC "-//W3C//DTD SVG 1.1//EN" "http://www.w3.org/Graphics/SVG/1.1/DTD/svg11.dtd"><svg t="1502078315548" class="icon" style="" viewBox="0 0 1024 1024" version="1.1" xmlns="http://www.w3.org/2000/svg" p-id="5266" xmlns:xlink="http://www.w3.org/1999/xlink" width="18" height="18"><defs><style type="text/css"></style></defs><path d="M891.973034 351.472933c-20.775162-49.106418-50.505277-93.206822-88.36863-131.071197-37.864376-37.869492-81.963757-67.598584-131.074267-88.369654-50.859341-21.51092-104.871489-32.419364-160.52502-32.419363-55.663764 0-109.673865 10.908444-160.53423 32.419363-49.104371 20.770046-93.204775 50.500161-131.070175 88.369654-37.868469 37.864376-67.597561 81.96478-88.36863 131.071197-21.511943 50.860365-32.420387 104.869443-32.420387 160.53116 0 55.660694 10.908444 109.669772 32.420387 160.527067 20.769023 49.105395 50.499138 93.211938 88.36863 131.069151 37.865399 37.868469 81.966826 67.598584 131.070175 88.375793 50.860365 21.508873 104.871489 32.412201 160.53423 32.412201 55.654554 0 109.665679-10.903328 160.52502-32.412201 49.110511-20.777209 93.211938-50.506301 131.074267-88.375793 37.865399-37.858236 67.594491-81.963757 88.36863-131.069151 21.51092-50.857295 32.414247-104.866373 32.414247-160.527067 0.001023-55.660694-10.903328-109.669772-32.414247-160.53116z m-128.673591 411.82958c-67.12684 67.12684-156.369374 104.090707-251.296373 104.090706-94.935186 0-184.178743-36.962843-251.30456-104.090706-67.12684-67.12684-104.089683-156.369374-104.089683-251.29842 0-94.933139 36.96182-184.17772 104.089683-251.303536 67.12684-67.125817 156.369374-104.090707 251.30456-104.090706 94.926999 0 184.169533 36.965913 251.296373 104.090706s104.090707 156.370397 104.090706 251.303536c-0.001023 94.930069-36.963866 184.17158-104.090706 251.29842z" p-id="5267" fill="#d4237a"></path><path d="M741.79671 480.235552H282.204313c-13.221116 0-23.936155 14.346753-23.936155 32.050974 0 17.705244 10.715039 32.048927 23.936155 32.048927h459.592397c13.214976 0 23.934109-14.34573 23.934109-32.048927s-10.714016-32.050973-23.934109-32.050974z" p-id="5268" fill="#d4237a"></path></svg>