<?xml version="1.0" standalone="no"?><!DOCTYPE svg PUBLIC "-//W3C//DTD SVG 1.1//EN" "http://www.w3.org/Graphics/SVG/1.1/DTD/svg11.dtd"><svg t="1501839855520" class="icon" style="" viewBox="0 0 1387 1024" version="1.1" xmlns="http://www.w3.org/2000/svg" p-id="2366" xmlns:xlink="http://www.w3.org/1999/xlink" width="24.380859375" height="18"><defs><style type="text/css"></style></defs><path d="M232.382 318.761H341.52l87.568 315.624 91.136-315.624h85.95L473.98 760.171H363.817l-131.435-441.41z m515.501 0v441.41H645.615v-441.41h102.268z m87.833 441.41v-441.41h172.462c38.482 0 67.914 4.162 88.328 12.453 20.38 8.292 38.648 23.123 54.668 44.462 16.02 21.339 24.048 47.533 24.048 78.584 0 21.768-4.295 43.008-12.85 63.719-8.522 20.711-20.612 36.963-36.203 48.822-15.591 11.858-30.753 19.72-45.354 23.618-14.666 3.864-37.59 5.813-68.773 5.813h-72.11v163.94H835.717z m167.342-244.141c25.434 0 43.272-5.913 53.545-17.771a60.449 60.449 0 0 0 15.393-40.762c0-17.904-5.748-32.108-17.144-42.678-11.429-10.57-28.804-15.855-52.125-15.855h-66.329V516.03h66.66z m330.62 50.572a54.305 54.305 0 0 1-54.074-54.536V240.904c0-72.44-58.434-131.435-130.313-131.435h-910.5c-71.846 0-130.313 58.996-130.313 131.435v542.258c0 72.473 58.467 131.435 130.312 131.435h910.501a130.94 130.94 0 0 0 127.67-104.877 53.909 53.909 0 0 1 63.818-42.513 54.503 54.503 0 0 1 42.116 64.38c-22.56 111.319-120.798 192.116-233.604 192.116h-910.5C107.32 1023.703 0.33 915.786 0.33 783.162V240.904C0.33 108.28 107.32 0.364 238.79 0.364h910.5c131.502 0 238.46 107.916 238.46 240.54v271.162c0 30.125-24.212 54.536-54.074 54.536z" p-id="2367" fill="#ce3d4c"></path></svg>